<svg width="31" height="23" viewBox="0 0 31 23" fill="none" xmlns="http://www.w3.org/2000/svg">
<path d="M26.26 1.92622C24.2533 1.02636 22.1075 0.372354 19.8644 0C19.5889 0.477376 19.2671 1.11945 19.0451 1.63024C16.6605 1.28653 14.2979 1.28653 11.9571 1.63024C11.7353 1.11945 11.4061 0.477376 11.1282 0C8.88253 0.372354 6.73442 1.02875 4.72775 1.93099C0.680248 7.79318 -0.416964 13.5098 0.131642 19.1452C2.81615 21.0667 5.41777 22.2338 7.9755 22.9976C8.60701 22.1647 9.17024 21.2792 9.65546 20.3458C8.73136 20.0093 7.84628 19.594 7.00994 19.1117C7.23183 18.9543 7.44883 18.7896 7.65852 18.6201C12.7594 20.9067 18.3014 20.9067 23.3414 18.6201C23.5535 18.7896 23.7705 18.9543 23.9899 19.1117C23.1512 19.5963 22.2636 20.0116 21.3396 20.3482C21.8247 21.2792 22.3855 22.167 23.0195 23C25.5796 22.2363 28.1836 21.069 30.8682 19.1452C31.5119 12.6123 29.7686 6.94821 26.26 1.92622ZM10.3503 15.6795C8.81913 15.6795 7.56344 14.3093 7.56344 12.641C7.56344 10.9725 8.79232 9.60009 10.3503 9.60009C11.9084 9.60009 13.1641 10.9701 13.1372 12.641C13.1398 14.3093 11.9084 15.6795 10.3503 15.6795ZM20.6495 15.6795C19.1183 15.6795 17.8626 14.3093 17.8626 12.641C17.8626 10.9725 19.0915 9.60009 20.6495 9.60009C22.2076 9.60009 23.4633 10.9701 23.4364 12.641C23.4364 14.3093 22.2076 15.6795 20.6495 15.6795Z" fill="#5361FF"/>
</svg>
