<svg id="svg" version="1.1" xmlns="http://www.w3.org/2000/svg" xmlns:xlink="http://www.w3.org/1999/xlink" width="400" height="400" viewBox="0, 0, 400,400"><g id="svgg"><path id="path0" d="M135.517 52.023 C 135.100 52.266,134.931 52.676,135.085 53.076 C 135.243 53.490,135.177 53.633,134.903 53.464 C 134.642 53.302,134.523 53.474,134.605 53.898 C 134.678 54.284,134.755 120.390,134.776 200.800 C 134.796 281.210,134.956 347.226,135.131 347.502 C 135.385 347.902,148.624 348.005,199.977 348.005 L 264.504 348.005 265.450 346.984 L 266.396 345.963 266.399 199.982 C 266.401 92.102,266.285 54.000,265.952 54.000 C 265.624 54.000,265.621 53.857,265.942 53.470 C 266.284 53.057,266.070 52.791,264.977 52.270 C 263.314 51.477,136.867 51.235,135.517 52.023 M231.900 52.300 C 214.355 52.358,185.645 52.358,168.100 52.300 C 150.555 52.242,164.910 52.195,200.000 52.195 C 235.090 52.195,249.445 52.242,231.900 52.300 M231.100 53.100 C 213.995 53.158,186.005 53.158,168.900 53.100 C 151.795 53.042,165.790 52.995,200.000 52.995 C 234.210 52.995,248.205 53.042,231.100 53.100 " stroke="none" fill="#ececec" fill-rule="evenodd"></path><path id="path1" d="M266.000 51.945 C 266.000 52.141,266.270 52.527,266.601 52.801 C 267.425 53.485,267.521 347.003,266.698 347.337 C 264.394 348.272,269.789 348.393,313.659 348.387 L 359.917 348.380 361.307 347.438 C 362.502 346.626,363.295 346.472,366.983 346.336 C 370.515 346.205,371.337 346.056,371.654 345.489 C 371.866 345.110,372.295 344.800,372.607 344.800 C 372.947 344.800,373.083 344.560,372.945 344.200 C 372.760 343.718,373.096 343.599,374.657 343.595 C 377.563 343.586,378.400 343.264,378.400 342.153 C 378.400 341.359,378.602 341.200,379.613 341.200 C 380.341 341.200,380.920 340.951,381.064 340.577 C 381.196 340.234,381.544 340.047,381.839 340.160 C 382.133 340.273,382.498 340.165,382.649 339.921 C 382.825 339.636,382.739 339.590,382.410 339.794 C 382.067 340.006,381.958 339.926,382.081 339.556 C 382.183 339.250,382.477 338.978,382.733 338.950 C 382.990 338.923,383.335 338.857,383.500 338.804 C 384.059 338.625,384.598 338.522,385.300 338.461 C 385.757 338.421,386.000 338.064,386.000 337.432 C 386.000 336.678,386.270 336.404,387.217 336.196 C 388.150 335.991,388.489 335.657,388.667 334.764 C 388.847 333.867,389.120 333.600,389.860 333.600 C 390.607 333.600,390.873 333.333,391.060 332.400 C 391.217 331.614,391.542 331.200,392.001 331.200 C 392.865 331.200,393.479 330.491,393.662 329.284 C 393.738 328.780,393.935 328.375,394.100 328.384 C 394.830 328.423,396.011 326.674,396.245 325.206 C 396.437 324.007,396.689 323.600,397.237 323.600 C 397.925 323.600,398.876 322.422,398.758 321.716 C 398.532 320.362,398.876 318.800,399.400 318.800 C 399.932 318.800,400.000 305.333,400.000 200.000 C 400.000 94.667,399.932 81.200,399.400 81.200 C 398.999 81.200,398.785 80.768,398.754 79.900 C 398.667 77.441,398.192 76.400,397.157 76.400 C 396.704 76.400,396.399 76.119,396.398 75.700 C 396.394 74.374,395.556 71.980,395.178 72.213 C 394.970 72.342,394.800 72.257,394.800 72.024 C 394.800 71.791,394.530 71.600,394.200 71.600 C 393.800 71.600,393.600 71.200,393.600 70.400 C 393.600 69.739,393.375 69.173,393.100 69.139 C 392.825 69.106,392.341 69.060,392.025 69.038 C 391.709 69.015,391.299 68.413,391.114 67.699 C 390.848 66.675,390.568 66.400,389.789 66.400 C 389.245 66.400,388.778 66.220,388.750 66.000 C 388.723 65.780,388.655 65.420,388.600 65.200 C 388.545 64.980,388.478 64.620,388.450 64.400 C 388.423 64.180,387.860 64.000,387.200 64.000 C 386.035 64.000,385.674 63.346,385.986 61.800 C 386.030 61.580,385.933 61.533,385.770 61.697 C 385.607 61.860,385.273 61.826,385.027 61.622 C 384.781 61.418,384.109 61.188,383.534 61.111 C 382.294 60.945,381.200 60.121,381.200 59.351 C 381.200 58.988,380.722 58.800,379.800 58.800 C 378.460 58.800,378.131 58.404,378.363 57.070 C 378.394 56.889,378.235 56.855,378.010 56.994 C 377.784 57.133,377.600 57.077,377.600 56.868 C 377.600 56.660,377.375 56.497,377.100 56.507 C 374.254 56.613,372.731 56.356,372.943 55.805 C 373.075 55.461,372.966 55.250,372.686 55.305 C 372.419 55.357,372.243 55.181,372.295 54.914 C 372.354 54.615,372.137 54.526,371.730 54.682 C 371.327 54.837,371.168 54.775,371.323 54.524 C 371.601 54.074,368.134 53.600,364.565 53.600 C 363.400 53.600,362.337 53.421,362.201 53.202 C 362.066 52.983,361.560 52.594,361.078 52.337 C 360.334 51.941,360.261 51.959,360.600 52.453 C 360.820 52.775,360.706 52.720,360.346 52.332 C 359.617 51.544,266.000 51.161,266.000 51.945 " stroke="none" fill="#cc2434" fill-rule="evenodd"></path><path id="path2" d="M38.531 52.543 C 37.544 53.365,36.851 53.513,33.095 53.700 C 28.694 53.919,26.800 54.548,26.800 55.790 C 26.800 56.212,26.147 56.393,24.317 56.481 C 22.043 56.590,21.813 56.684,21.599 57.596 C 21.422 58.354,21.035 58.647,19.983 58.822 C 18.194 59.119,16.800 59.885,16.800 60.570 C 16.800 60.870,16.187 61.226,15.425 61.369 C 14.307 61.579,14.027 61.829,13.925 62.711 C 13.827 63.565,13.545 63.840,12.600 64.000 C 11.659 64.160,11.373 64.436,11.276 65.278 C 11.180 66.107,10.907 66.380,10.076 66.476 C 9.244 66.572,8.972 66.844,8.876 67.676 C 8.780 68.507,8.507 68.780,7.676 68.876 C 6.786 68.979,6.578 69.225,6.475 70.300 C 6.381 71.267,6.154 71.600,5.589 71.600 C 4.666 71.600,4.113 72.555,3.762 74.750 C 3.543 76.118,3.343 76.400,2.596 76.400 C 1.587 76.400,1.214 77.284,1.205 79.700 C 1.202 80.764,1.026 81.200,0.600 81.200 C 0.068 81.200,0.000 94.667,0.000 200.000 C 0.000 305.333,0.068 318.800,0.600 318.800 C 1.026 318.800,1.202 319.236,1.205 320.300 C 1.214 322.716,1.587 323.600,2.596 323.600 C 3.343 323.600,3.543 323.882,3.762 325.250 C 4.113 327.445,4.666 328.400,5.589 328.400 C 6.154 328.400,6.381 328.733,6.475 329.700 C 6.578 330.775,6.786 331.021,7.676 331.124 C 8.507 331.220,8.780 331.493,8.876 332.324 C 8.972 333.156,9.244 333.428,10.076 333.524 C 10.903 333.620,11.180 333.894,11.276 334.712 C 11.371 335.522,11.708 335.862,12.700 336.145 C 13.685 336.426,14.000 336.740,14.000 337.440 C 14.000 338.179,14.280 338.416,15.400 338.626 C 16.187 338.774,16.800 339.128,16.800 339.434 C 16.800 340.173,18.882 341.200,20.380 341.200 C 21.400 341.200,21.600 341.357,21.600 342.157 C 21.600 343.302,22.248 343.600,24.738 343.600 C 26.296 343.600,26.677 343.751,27.005 344.500 C 27.563 345.772,29.643 346.351,33.742 346.377 C 36.919 346.398,37.407 346.503,38.473 347.400 L 39.661 348.400 86.731 348.368 C 112.619 348.351,133.563 348.242,133.274 348.126 C 132.985 348.011,132.578 347.469,132.370 346.922 C 132.078 346.153,131.757 55.523,132.046 53.900 C 132.076 53.735,132.123 53.429,132.150 53.220 C 132.233 52.589,132.943 52.078,134.000 51.888 C 134.550 51.790,113.549 51.684,87.331 51.654 L 39.661 51.600 38.531 52.543 M371.515 54.218 C 371.388 54.345,371.724 54.888,372.261 55.424 C 373.271 56.435,374.014 56.780,373.283 55.900 C 373.055 55.625,372.853 55.265,372.834 55.100 C 372.815 54.935,372.685 54.815,372.545 54.834 C 372.404 54.853,372.167 54.670,372.017 54.428 C 371.868 54.186,371.642 54.092,371.515 54.218 M381.200 59.538 C 381.200 60.184,382.708 61.273,382.984 60.826 C 383.384 60.178,382.857 59.603,382.122 59.885 C 381.685 60.053,381.565 59.981,381.758 59.668 C 381.917 59.411,381.857 59.200,381.624 59.200 C 381.391 59.200,381.200 59.352,381.200 59.538 M381.959 339.522 C 380.884 340.778,380.709 341.210,381.379 340.953 C 381.721 340.822,382.000 340.543,382.000 340.334 C 382.000 340.124,382.168 340.056,382.372 340.183 C 382.887 340.501,383.374 339.614,382.930 339.170 C 382.716 338.956,382.321 339.099,381.959 339.522 M371.784 345.227 C 371.639 345.461,371.628 345.761,371.760 345.893 C 371.892 346.025,372.000 345.913,372.000 345.643 C 372.000 345.373,372.168 345.256,372.372 345.383 C 372.577 345.509,372.858 345.430,372.996 345.207 C 373.134 344.983,372.977 344.800,372.647 344.800 C 372.317 344.800,371.929 344.992,371.784 345.227 " stroke="none" fill="#049444" fill-rule="evenodd"></path><path id="path3" d="M134.557 51.991 C 133.173 52.551,133.200 49.618,133.204 199.750 C 133.209 352.832,133.154 347.268,134.664 347.956 C 135.851 348.497,136.423 348.529,135.600 348.008 C 134.929 347.584,134.258 54.135,134.927 53.721 C 135.107 53.610,135.160 53.272,135.044 52.970 C 134.928 52.668,135.141 52.242,135.517 52.023 C 136.345 51.540,135.725 51.520,134.557 51.991 M264.713 52.104 C 265.214 52.400,265.490 52.777,265.325 52.942 C 265.160 53.107,265.379 53.109,265.812 52.946 C 266.511 52.684,266.538 52.726,266.051 53.325 C 265.692 53.766,265.658 54.000,265.952 54.000 C 266.285 54.000,266.401 92.110,266.399 200.016 L 266.396 346.031 265.169 347.231 L 263.942 348.430 265.067 348.147 C 265.686 347.992,266.418 347.639,266.694 347.363 C 267.608 346.449,267.417 53.514,266.501 52.710 C 266.115 52.372,265.350 51.976,264.800 51.831 L 263.800 51.567 264.713 52.104 M168.100 52.300 C 185.645 52.358,214.355 52.358,231.900 52.300 C 249.445 52.242,235.090 52.195,200.000 52.195 C 164.910 52.195,150.555 52.242,168.100 52.300 M168.900 53.100 C 186.005 53.158,213.995 53.158,231.100 53.100 C 248.205 53.042,234.210 52.995,200.000 52.995 C 165.790 52.995,151.795 53.042,168.900 53.100 M168.100 348.300 C 185.645 348.358,214.355 348.358,231.900 348.300 C 249.445 348.242,235.090 348.195,200.000 348.195 C 164.910 348.195,150.555 348.242,168.100 348.300 " stroke="none" fill="#a8b8f0" fill-rule="evenodd"></path><path id="path4" d="M132.464 53.019 C 131.499 55.138,131.831 346.231,132.800 347.200 C 133.240 347.640,133.825 347.997,134.100 347.994 C 134.432 347.990,134.398 347.860,134.000 347.608 C 133.292 347.161,132.861 55.890,133.565 53.342 C 134.022 51.688,133.183 51.442,132.464 53.019 " stroke="none" fill="#30c490" fill-rule="evenodd"></path><path id="path5" d="M265.300 348.276 C 265.685 348.376,266.315 348.376,266.700 348.276 C 267.085 348.175,266.770 348.093,266.000 348.093 C 265.230 348.093,264.915 348.175,265.300 348.276 " stroke="none" fill="#305c9c" fill-rule="evenodd"></path><path id="path6" d="M131.720 56.000 C 131.720 57.210,131.795 57.705,131.887 57.100 C 131.978 56.495,131.978 55.505,131.887 54.900 C 131.795 54.295,131.720 54.790,131.720 56.000 M131.693 344.400 C 131.693 345.170,131.775 345.485,131.876 345.100 C 131.976 344.715,131.976 344.085,131.876 343.700 C 131.775 343.315,131.693 343.630,131.693 344.400 " stroke="none" fill="#30983c" fill-rule="evenodd"></path><path id="path7" d="M131.720 56.000 C 131.720 57.210,131.795 57.705,131.887 57.100 C 131.978 56.495,131.978 55.505,131.887 54.900 C 131.795 54.295,131.720 54.790,131.720 56.000 M131.693 344.400 C 131.693 345.170,131.775 345.485,131.876 345.100 C 131.976 344.715,131.976 344.085,131.876 343.700 C 131.775 343.315,131.693 343.630,131.693 344.400 " stroke="none" fill="#30983c" fill-rule="evenodd"></path><path id="path8" d="M131.720 56.000 C 131.720 57.210,131.795 57.705,131.887 57.100 C 131.978 56.495,131.978 55.505,131.887 54.900 C 131.795 54.295,131.720 54.790,131.720 56.000 M131.693 344.400 C 131.693 345.170,131.775 345.485,131.876 345.100 C 131.976 344.715,131.976 344.085,131.876 343.700 C 131.775 343.315,131.693 343.630,131.693 344.400 " stroke="none" fill="#30983c" fill-rule="evenodd"></path></g></svg>