<svg width="25" height="25" viewBox="0 0 25 25" fill="none" xmlns="http://www.w3.org/2000/svg">
<path d="M10.4167 6.25L14.5833 2.08334C14.5833 2.08334 18.75 -2.08333 22.9167 2.08334C27.0833 6.25 22.9167 10.4167 22.9167 10.4167L17.3611 15.9722C17.3611 15.9722 13.1945 20.1389 9.02779 15.9722C8.24654 15.191 7.76251 14.1528 7.76251 14.1528L10.091 11.8278C10.091 11.8278 9.99723 12.775 11.1111 13.8889C11.1111 13.8889 13.1945 15.9722 15.2778 13.8889L20.8333 8.33333C20.8333 8.33333 22.9167 6.25 20.8333 4.16667C18.75 2.08333 16.6667 4.16667 16.6667 4.16667L14.0771 6.75625C14.0771 6.75625 12.7896 5.7 10.1563 6.51042L10.4167 6.25Z" fill="#F0F0F0"/>
<path d="M14.4757 18.75L10.309 22.9167C10.309 22.9167 6.14236 27.0833 1.97569 22.9167C-2.19097 18.75 1.97569 14.5833 1.97569 14.5833L7.53125 9.02779C7.53125 9.02779 11.6979 4.86112 15.8646 9.02779C16.6458 9.80904 17.1299 10.8472 17.1299 10.8472L14.8007 13.1729C14.8007 13.1729 14.8944 12.225 13.7806 11.1111C13.7806 11.1111 11.6972 9.02779 9.61389 11.1111L4.05833 16.6667C4.05833 16.6667 1.975 18.75 4.05833 20.8333C6.14166 22.9167 8.225 20.8333 8.225 20.8333L10.8146 18.2438C10.8146 18.2438 12.1021 19.3 14.7354 18.4896L14.4757 18.75Z" fill="#F0F0F0"/>
</svg>
